HIERARCHY
ROOT Hips
{
	OFFSET 0.000000 83.214638 0.000000
	CHANNELS 6 Xposition Yposition Zposition Xrotation Yrotation Zrotation
	JOINT Pelvis
	{
		OFFSET 0.000000 0.000000 0.000000
		CHANNELS 3 Xrotation Yrotation Zrotation
		JOINT LeftUpLeg
		{
			OFFSET 8.479700 -4.795502 -0.379100
			CHANNELS 3 Xrotation Yrotation Zrotation
			JOINT LeftLeg
			{
				OFFSET 0.024144 -32.555107 0.112900
				CHANNELS 3 Xrotation Yrotation Zrotation
				JOINT LeftFoot
				{
					OFFSET -0.024144 -32.638630 -3.012600
					CHANNELS 3 Xrotation Yrotation Zrotation
					JOINT LeftToeBase
					{
						OFFSET 0.970200 -13.225400 11.864200
						CHANNELS 3 Xrotation Yrotation Zrotation
						End Site
						{
							OFFSET 0.000000 12.319262 0.000000
						}
					}
					JOINT LFootTongue
					{
						OFFSET 1.142400 -1.059800 6.665200
						CHANNELS 3 Xrotation Yrotation Zrotation
						End Site
						{
							OFFSET 0.000000 12.319262 0.000000
						}
					}
				}
				JOINT LeftPantLeg
				{
					OFFSET 0.918482 -16.533964 -2.284700
					CHANNELS 3 Xrotation Yrotation Zrotation
					End Site
					{
						OFFSET 0.350399 24.744368 0.000000
					}
				}
			}
		}
		JOINT RightUpLeg
		{
			OFFSET -8.479700 -4.795502 -0.379100
			CHANNELS 3 Xrotation Yrotation Zrotation
			JOINT RightLeg
			{
				OFFSET -0.023144 -32.555092 0.112900
				CHANNELS 3 Xrotation Yrotation Zrotation
				JOINT RightFoot
				{
					OFFSET 0.023144 -32.638641 -3.012700
					CHANNELS 3 Xrotation Yrotation Zrotation
					JOINT RightToeBase
					{
						OFFSET -0.970200 -13.225400 11.864200
						CHANNELS 3 Xrotation Yrotation Zrotation
						End Site
						{
							OFFSET 0.000000 12.319244 0.000000
						}
					}
					JOINT RFootTongue
					{
						OFFSET -1.142200 -1.059800 6.665200
						CHANNELS 3 Xrotation Yrotation Zrotation
						End Site
						{
							OFFSET 0.000000 12.319243 0.000000
						}
					}
				}
				JOINT RightPantLeg
				{
					OFFSET -0.919482 -16.533978 -2.284800
					CHANNELS 3 Xrotation Yrotation Zrotation
					End Site
					{
						OFFSET -0.350400 24.744419 0.000000
					}
				}
			}
		}
	}
	JOINT Spine
	{
		OFFSET 0.000000 7.722000 1.166200
		CHANNELS 3 Xrotation Yrotation Zrotation
		JOINT Spine1
		{
			OFFSET 0.000000 12.024101 0.248800
			CHANNELS 3 Xrotation Yrotation Zrotation
			JOINT Spine2
			{
				OFFSET 0.000000 11.502998 -0.491200
				CHANNELS 3 Xrotation Yrotation Zrotation
				JOINT Neck
				{
					OFFSET 0.000000 18.430702 -3.123100
					CHANNELS 3 Xrotation Yrotation Zrotation
					JOINT Head
					{
						OFFSET 0.000000 9.051102 1.034000
						CHANNELS 3 Xrotation Yrotation Zrotation
						JOINT HairB
						{
							OFFSET 0.208400 24.786102 24.822300
							CHANNELS 3 Xrotation Yrotation Zrotation
							End Site
							{
								OFFSET 0.000000 32.263779 0.000000
							}
						}
						JOINT HairA
						{
							OFFSET -7.081100 24.428299 23.196600
							CHANNELS 3 Xrotation Yrotation Zrotation
							End Site
							{
								OFFSET 0.000000 32.263779 0.000000
							}
						}
						JOINT Hat
						{
							OFFSET 16.728800 15.048294 -15.439601
							CHANNELS 3 Xrotation Yrotation Zrotation
							End Site
							{
								OFFSET 0.000000 32.263779 0.000000
							}
						}
					}
				}
				JOINT LeftShoulder
				{
					OFFSET 6.197800 13.665199 -4.064700
					CHANNELS 3 Xrotation Yrotation Zrotation
					JOINT LeftArm
					{
						OFFSET 7.778100 -0.187103 -1.709300
						CHANNELS 3 Xrotation Yrotation Zrotation
						JOINT LeftForeArm
						{
							OFFSET 22.049376 0.000000 0.000000
							CHANNELS 3 Xrotation Yrotation Zrotation
							JOINT LeftHand
							{
								OFFSET 23.009392 0.000000 0.000000
								CHANNELS 3 Xrotation Yrotation Zrotation
								JOINT LeftHandThumb1
								{
									OFFSET 3.507191 -2.063065 3.133727
									CHANNELS 3 Xrotation Yrotation Zrotation
									JOINT LeftHandThumb2
									{
										OFFSET 3.101337 -1.790558 1.790558
										CHANNELS 3 Xrotation Yrotation Zrotation
										JOINT LeftHandThumb3
										{
											OFFSET 3.058640 -1.765907 1.765906
											CHANNELS 3 Xrotation Yrotation Zrotation
											End Site
											{
												OFFSET -0.415260 3.926476 -0.049563
											}
										}
									}
								}
								JOINT LeftHandIndex1
								{
									OFFSET 11.334419 -0.901459 3.706815
									CHANNELS 3 Xrotation Yrotation Zrotation
									JOINT LeftHandIndex2
									{
										OFFSET 3.283112 0.000000 0.000000
										CHANNELS 3 Xrotation Yrotation Zrotation
										JOINT LeftHandIndex3
										{
											OFFSET 3.323853 0.000000 0.000000
											CHANNELS 3 Xrotation Yrotation Zrotation
											End Site
											{
												OFFSET -1.135597 3.097809 0.402452
											}
										}
									}
								}
								JOINT LeftHandMiddle1
								{
									OFFSET 11.335861 0.000000 0.000000
									CHANNELS 3 Xrotation Yrotation Zrotation
									JOINT LeftHandMiddle2
									{
										OFFSET 3.410492 0.000000 0.000000
										CHANNELS 3 Xrotation Yrotation Zrotation
										JOINT LeftHandMiddle3
										{
											OFFSET 3.312172 0.000000 0.000000
											CHANNELS 3 Xrotation Yrotation Zrotation
											End Site
											{
												OFFSET -1.150200 3.080154 0.400270
											}
										}
									}
								}
								JOINT LeftHandRing1
								{
									OFFSET 11.514786 -0.013176 -3.003090
									CHANNELS 3 Xrotation Yrotation Zrotation
									JOINT LeftHandRing2
									{
										OFFSET 3.053307 0.000000 0.000000
										CHANNELS 3 Xrotation Yrotation Zrotation
										JOINT LeftHandRing3
										{
											OFFSET 3.295807 0.000000 0.000000
											CHANNELS 3 Xrotation Yrotation Zrotation
											End Site
											{
												OFFSET -1.281006 3.013344 0.375733
											}
										}
									}
								}
								JOINT LeftHandPinky1
								{
									OFFSET 10.518692 -0.960396 -5.730441
									CHANNELS 3 Xrotation Yrotation Zrotation
									JOINT LeftHandPinky2
									{
										OFFSET 2.861649 0.000000 0.000000
										CHANNELS 3 Xrotation Yrotation Zrotation
										JOINT LeftHandPinky3
										{
											OFFSET 2.863380 0.000000 0.000000
											CHANNELS 3 Xrotation Yrotation Zrotation
											End Site
											{
												OFFSET -0.843597 2.711159 0.369971
											}
										}
									}
								}
							}
							JOINT LSleeve
							{
								OFFSET 6.676277 -0.344902 -1.011730
								CHANNELS 3 Xrotation Yrotation Zrotation
								End Site
								{
									OFFSET 0.000000 14.885353 0.000000
								}
							}
						}
					}
				}
				JOINT RightShoulder
				{
					OFFSET -6.197800 13.665199 -4.064700
					CHANNELS 3 Xrotation Yrotation Zrotation
					JOINT RightArm
					{
						OFFSET -7.778100 -0.187103 -1.709300
						CHANNELS 3 Xrotation Yrotation Zrotation
						JOINT RightForeArm
						{
							OFFSET -22.049376 0.000000 0.000000
							CHANNELS 3 Xrotation Yrotation Zrotation
							JOINT RightHand
							{
								OFFSET -23.009392 0.000000 0.000000
								CHANNELS 3 Xrotation Yrotation Zrotation
								JOINT RightHandThumb1
								{
									OFFSET -3.507191 -2.063065 3.133727
									CHANNELS 3 Xrotation Yrotation Zrotation
									JOINT RightHandThumb2
									{
										OFFSET -3.101337 -1.790558 1.790558
										CHANNELS 3 Xrotation Yrotation Zrotation
										JOINT RightHandThumb3
										{
											OFFSET -3.058640 -1.765907 1.765906
											CHANNELS 3 Xrotation Yrotation Zrotation
											End Site
											{
												OFFSET 0.415260 3.926476 -0.049563
											}
										}
									}
								}
								JOINT RightHandIndex1
								{
									OFFSET -11.334419 -0.901459 3.706815
									CHANNELS 3 Xrotation Yrotation Zrotation
									JOINT RightHandIndex2
									{
										OFFSET -3.283112 0.000000 0.000000
										CHANNELS 3 Xrotation Yrotation Zrotation
										JOINT RightHandIndex3
										{
											OFFSET -3.323853 0.000000 0.000000
											CHANNELS 3 Xrotation Yrotation Zrotation
											End Site
											{
												OFFSET 1.135597 3.097809 0.402452
											}
										}
									}
								}
								JOINT RightHandMiddle1
								{
									OFFSET -11.335861 0.000000 0.000000
									CHANNELS 3 Xrotation Yrotation Zrotation
									JOINT RightHandMiddle2
									{
										OFFSET -3.410492 0.000000 0.000000
										CHANNELS 3 Xrotation Yrotation Zrotation
										JOINT RightHandMiddle3
										{
											OFFSET -3.312172 0.000000 0.000000
											CHANNELS 3 Xrotation Yrotation Zrotation
											End Site
											{
												OFFSET 1.150200 3.080154 0.400270
											}
										}
									}
								}
								JOINT RightHandRing1
								{
									OFFSET -11.514786 -0.013176 -3.003090
									CHANNELS 3 Xrotation Yrotation Zrotation
									JOINT RightHandRing2
									{
										OFFSET -3.053307 0.000000 0.000000
										CHANNELS 3 Xrotation Yrotation Zrotation
										JOINT RightHandRing3
										{
											OFFSET -3.295807 0.000000 0.000000
											CHANNELS 3 Xrotation Yrotation Zrotation
											End Site
											{
												OFFSET 1.281006 3.013344 0.375733
											}
										}
									}
								}
								JOINT RightHandPinky1
								{
									OFFSET -10.518692 -0.960396 -5.730441
									CHANNELS 3 Xrotation Yrotation Zrotation
									JOINT RightHandPinky2
									{
										OFFSET -2.861649 0.000000 0.000000
										CHANNELS 3 Xrotation Yrotation Zrotation
										JOINT RightHandPinky3
										{
											OFFSET -2.863380 0.000000 0.000000
											CHANNELS 3 Xrotation Yrotation Zrotation
											End Site
											{
												OFFSET 0.843597 2.711159 0.369971
											}
										}
									}
								}
							}
							JOINT RSleeve
							{
								OFFSET -6.676277 -0.344902 -1.011730
								CHANNELS 3 Xrotation Yrotation Zrotation
								End Site
								{
									OFFSET 0.000000 14.885353 0.000000
								}
							}
						}
					}
				}
				JOINT Backpack
				{
					OFFSET 0.000000 -2.471497 36.677502
					CHANNELS 3 Xrotation Yrotation Zrotation
					End Site
					{
						OFFSET 0.000000 20.427315 0.000000
					}
				}
				JOINT Hood
				{
					OFFSET 0.000000 18.754097 -10.431000
					CHANNELS 3 Xrotation Yrotation Zrotation
					JOINT Hood1
					{
						OFFSET 0.000000 -5.011002 -7.685901
						CHANNELS 3 Xrotation Yrotation Zrotation
						End Site
						{
							OFFSET 0.000000 9.175140 0.000000
						}
					}
				}
				JOINT LHoodieString
				{
					OFFSET 5.250500 16.397697 3.089900
					CHANNELS 3 Xrotation Yrotation Zrotation
					JOINT LHoodieString1
					{
						OFFSET 0.257700 -6.364304 3.694600
						CHANNELS 3 Xrotation Yrotation Zrotation
						JOINT LHoodieString2
						{
							OFFSET 0.000000 -9.643799 2.679100
							CHANNELS 3 Xrotation Yrotation Zrotation
							End Site
							{
								OFFSET 0.000000 10.009018 0.000000
							}
						}
					}
				}
				JOINT RHoodieString
				{
					OFFSET -5.250500 16.397697 3.089900
					CHANNELS 3 Xrotation Yrotation Zrotation
					JOINT RHoodieString1
					{
						OFFSET -0.257700 -6.364304 3.694600
						CHANNELS 3 Xrotation Yrotation Zrotation
						JOINT RHoodieString2
						{
							OFFSET 0.000000 -9.643799 2.679100
							CHANNELS 3 Xrotation Yrotation Zrotation
							End Site
							{
								OFFSET 0.000000 10.009018 0.000000
							}
						}
					}
				}
			}
			JOINT LBackpack_Strap
			{
				OFFSET 15.223200 -7.719803 -6.610900
				CHANNELS 3 Xrotation Yrotation Zrotation
				End Site
				{
					OFFSET 0.000000 16.040596 0.000000
				}
			}
			JOINT RBackpack_Strap
			{
				OFFSET -15.223000 -7.719803 -6.610900
				CHANNELS 3 Xrotation Yrotation Zrotation
				End Site
				{
					OFFSET 0.000000 16.040596 0.000000
				}
			}
		}
	}
	JOINT BoyFacialAnim_Joint
	{
		OFFSET 1.000000 -82.208099 -1.550900
		CHANNELS 3 Xrotation Yrotation Zrotation
		End Site
		{
			OFFSET 0.000000 30.012791 0.000000
		}
	}
}
MOTION
Frames: 4
Frame Time: 0.033333
3.648923 82.409111 0.054659 -0.780706 -4.671836 -2.706000 -0.000000 0.000000 0.000000 -15.790912 1.544579 8.763574 14.869993 0.028729 -0.535062 4.348099 18.076678 -3.950146 0.000000 -0.000001 -0.000000 0.000000 -0.000001 -0.000000 0.000000 -0.000000 0.000000 -1.681566 -7.002881 6.601033 6.916903 0.008047 0.262240 -4.536726 -12.444279 -4.499152 0.000000 -0.000000 0.000000 0.000000 -0.000000 0.000000 0.000000 0.000001 0.000001 1.207156 0.729021 1.498368 2.396376 1.485541 2.919314 2.396375 1.485542 2.919315 -10.365265 0.222939 -0.339605 4.308448 0.558428 -4.628833 0.000000 -0.000000 -0.000000 0.000000 -0.000000 -0.000000 0.000000 -0.000000 -0.000000 0.541634 -6.336778 -11.533636 5.424971 -23.092637 -67.046585 -0.649713 -8.508974 -0.096134 -16.470463 -19.579359 8.828165 -4.335576 13.385802 2.715604 4.182412 9.841763 5.499367 0.000001 -0.000001 -0.000000 -6.542682 12.137162 -12.935887 0.551410 1.109610 -11.358709 -0.000002 -0.000001 -0.000004 -0.805128 6.906506 -10.593376 -0.015434 -0.292061 -10.347144 0.000002 0.000001 0.000002 1.932593 6.552078 -19.233191 -0.098559 0.116010 -10.400601 -0.000001 -0.000001 -0.000002 6.654889 6.908975 -28.694817 -0.494852 -2.794972 -16.375314 -0.000001 0.000001 0.000002 0.000003 0.000001 -0.000000 0.821133 3.452859 8.739661 13.867056 26.811995 65.071779 -1.012491 9.991921 0.175721 -26.876641 18.570393 -19.789836 -7.968098 -15.884880 -4.152657 6.041876 -13.718092 -3.711792 0.000000 -0.000000 -0.000002 -6.559070 -7.923454 13.275023 0.043233 -0.572424 5.232642 -0.000002 -0.000002 0.000001 -0.079376 -6.181317 13.785227 -0.091327 0.458893 10.424922 0.000001 0.000001 0.000000 -0.582815 -4.019927 20.369702 -0.358503 0.446836 9.351822 0.000000 0.000000 -0.000001 1.513186 -3.501509 22.411930 -1.288479 4.063860 12.536187 -0.000001 -0.000001 0.000000 0.000001 -0.000000 0.000000 0.000000 -0.000000 -0.000000 0.000000 -0.000000 -0.000000 0.000000 -0.000000 -0.000000 0.000000 -0.000000 -0.000000 0.000000 -0.000000 -0.000000 -0.000000 -0.000000 0.000000 0.000000 -0.000000 -0.000000 0.000000 -0.000000 -0.000000 -0.000000 -0.000000 0.000000 0.000000 0.000000 0.000000 0.000000 0.000000 0.000000 -0.000000 0.000000 0.000000 
3.651116 82.409019 0.051799 -0.775181 -4.700230 -2.694295 -0.000000 -0.000000 -0.000000 -15.783923 1.556681 8.754853 14.851208 0.028402 -0.534775 4.358989 18.104031 -3.963453 -0.000000 0.000001 -0.000000 -0.000000 0.000001 -0.000000 -0.000000 0.000000 -0.000000 -1.715792 -7.000623 6.581513 6.961277 0.008130 0.264129 -4.553271 -12.421565 -4.491044 0.000000 0.000002 -0.000000 0.000000 0.000002 -0.000000 0.000000 0.000001 -0.000000 1.206530 0.731391 1.497539 2.395076 1.490267 2.917694 2.395077 1.490266 2.917695 -10.364943 0.226969 -0.343612 4.311655 0.562047 -4.632632 -0.000000 0.000000 0.000000 -0.000000 0.000000 0.000000 -0.000000 0.000000 0.000000 0.540863 -6.355020 -11.551038 5.450291 -23.080644 -67.041763 -0.645822 -8.504515 -0.095530 -16.497904 -19.581831 8.860435 -4.335576 13.385805 2.715603 4.182408 9.841762 5.499362 -0.000001 -0.000000 0.000001 -6.542684 12.137155 -12.935892 0.551413 1.109614 -11.358617 -0.000001 0.000000 -0.000000 -0.805116 6.906516 -10.593360 -0.015451 -0.292069 -10.347179 0.000002 0.000000 0.000002 1.932611 6.552086 -19.233145 -0.098558 0.115982 -10.400633 0.000001 0.000000 -0.000002 6.654900 6.908989 -28.694786 -0.494846 -2.794972 -16.375312 -0.000003 0.000001 0.000002 -0.000002 -0.000000 0.000001 0.821098 3.455837 8.735256 13.889580 26.791245 65.040674 -1.011750 10.044297 0.176490 -26.877160 18.539514 -19.793968 -7.968097 -15.884882 -4.152657 6.041876 -13.718089 -3.711792 -0.000000 0.000000 -0.000003 -6.559064 -7.923459 13.275070 0.043232 -0.572405 5.232610 -0.000000 0.000001 0.000000 -0.079379 -6.181318 13.785256 -0.091327 0.458880 10.424933 0.000000 0.000001 -0.000000 -0.582820 -4.019929 20.369716 -0.358507 0.446843 9.351808 -0.000000 -0.000002 -0.000002 1.513187 -3.501506 22.411948 -1.288487 4.063859 12.536168 -0.000000 0.000000 -0.000001 -0.000002 -0.000000 0.000000 0.000001 -0.000000 0.000000 0.000001 -0.000000 0.000000 0.000001 -0.000000 0.000000 0.000001 -0.000000 0.000000 0.000001 -0.000000 0.000000 0.000000 -0.000000 0.000000 0.000001 -0.000000 0.000000 0.000001 -0.000000 0.000000 0.000000 -0.000000 0.000000 -0.000000 -0.000000 -0.000000 -0.000000 -0.000000 -0.000000 -0.000000 -0.000000 -0.000000 
3.652787 82.408867 0.051481 -0.773030 -4.721664 -2.692636 0.000000 -0.000000 0.000000 -15.783992 1.555645 8.751975 14.856544 0.028369 -0.534888 4.349033 18.130575 -3.952778 -0.000000 -0.000002 -0.000000 -0.000000 -0.000002 -0.000000 -0.000000 -0.000000 -0.000001 -1.726553 -7.004932 6.575893 6.974313 0.007753 0.264808 -4.554875 -12.399164 -4.489498 0.000000 -0.000002 0.000000 0.000000 -0.000002 0.000000 -0.000000 -0.000001 -0.000000 1.205753 0.732738 1.496790 2.393501 1.492934 2.916227 2.393500 1.492934 2.916225 -10.364808 0.231921 -0.347994 4.314231 0.566637 -4.637432 0.000000 -0.000000 -0.000000 0.000000 -0.000000 -0.000000 0.000000 -0.000000 -0.000000 0.540770 -6.358372 -11.553879 5.478795 -23.080594 -67.046278 -0.645050 -8.502232 -0.095387 -16.531068 -19.577501 8.895901 -4.335575 13.385806 2.715603 4.182408 9.841765 5.499365 -0.000000 0.000000 0.000004 -6.542685 12.137157 -12.935907 0.551422 1.109602 -11.358645 0.000000 -0.000002 0.000001 -0.805130 6.906512 -10.593371 -0.015424 -0.292053 -10.347136 0.000001 -0.000001 0.000002 1.932598 6.552084 -19.233145 -0.098555 0.116012 -10.400585 0.000001 -0.000001 -0.000001 6.654899 6.908980 -28.694782 -0.494849 -2.794975 -16.375326 0.000003 0.000000 0.000002 0.000002 0.000001 0.000000 0.821113 3.460384 8.730955 13.873857 26.793119 65.033366 -1.013905 10.013058 0.176303 -26.884719 18.542473 -19.781018 -7.968097 -15.884880 -4.152658 6.041875 -13.718089 -3.711792 -0.000000 0.000001 0.000003 -6.559042 -7.923446 13.275049 0.043224 -0.572405 5.232621 -0.000000 0.000002 -0.000001 -0.079352 -6.181308 13.785200 -0.091328 0.458866 10.424918 -0.000001 0.000000 -0.000000 -0.582819 -4.019927 20.369723 -0.358496 0.446837 9.351795 -0.000001 0.000000 0.000000 1.513200 -3.501514 22.411896 -1.288489 4.063863 12.536196 -0.000000 0.000000 0.000000 0.000001 -0.000000 -0.000000 0.000000 -0.000000 -0.000000 0.000000 -0.000000 -0.000000 0.000000 -0.000000 -0.000000 0.000000 -0.000000 -0.000000 0.000000 -0.000000 -0.000000 -0.000000 0.000000 -0.000000 0.000000 -0.000000 -0.000000 0.000000 -0.000000 -0.000000 -0.000000 0.000000 -0.000000 0.000000 -0.000000 -0.000000 0.000000 -0.000000 -0.000000 0.000000 -0.000000 0.000000 
3.654926 82.408638 0.051291 -0.772664 -4.730976 -2.692064 0.000000 -0.000000 0.000000 -15.790895 1.552335 8.745235 14.872310 0.028837 -0.534788 4.326914 18.138655 -3.911863 -0.000000 0.000000 -0.000000 -0.000000 0.000000 0.000000 -0.000000 -0.000000 0.000000 -1.735362 -7.010797 6.571687 6.987571 0.007439 0.265493 -4.555152 -12.387187 -4.490467 0.000000 0.000000 0.000000 0.000000 0.000000 0.000000 0.000000 -0.000000 0.000001 1.204590 0.732568 1.496359 2.391183 1.492556 2.915316 2.391185 1.492555 2.915314 -10.365727 0.237373 -0.352283 4.316255 0.572132 -4.643484 -0.000000 0.000000 -0.000000 -0.000000 0.000000 -0.000000 -0.000000 0.000000 -0.000000 0.540982 -6.353631 -11.547204 5.498024 -23.084832 -67.066071 -0.645923 -8.501999 -0.095505 -16.550479 -19.562876 8.917839 -4.335571 13.385805 2.715603 4.182409 9.841763 5.499366 0.000001 0.000001 0.000004 -6.542697 12.137157 -12.935892 0.551426 1.109609 -11.358631 -0.000001 0.000001 0.000000 -0.805130 6.906507 -10.593371 -0.015449 -0.292053 -10.347141 0.000001 -0.000001 -0.000002 1.932595 6.552081 -19.233143 -0.098556 0.116004 -10.400603 0.000000 0.000001 -0.000002 6.654895 6.908979 -28.694786 -0.494842 -2.794980 -16.375332 -0.000001 -0.000000 -0.000000 0.000000 -0.000000 -0.000001 0.821068 3.466790 8.728802 13.860810 26.798123 65.025696 -1.016156 9.972340 0.175998 -26.895444 18.540967 -19.777241 -7.968097 -15.884884 -4.152659 6.041877 -13.718091 -3.711790 -0.000000 0.000000 -0.000001 -6.559052 -7.923463 13.275055 0.043225 -0.572410 5.232635 -0.000000 -0.000001 0.000003 -0.079361 -6.181309 13.785209 -0.091332 0.458875 10.424925 0.000001 -0.000002 -0.000002 -0.582815 -4.019924 20.369704 -0.358504 0.446846 9.351814 0.000000 0.000000 0.000000 1.513189 -3.501505 22.411937 -1.288475 4.063862 12.536177 -0.000000 -0.000002 -0.000002 0.000000 -0.000000 0.000000 -0.000000 -0.000000 0.000000 -0.000000 -0.000000 0.000000 -0.000000 -0.000000 0.000000 -0.000000 -0.000000 0.000000 -0.000000 -0.000000 0.000000 -0.000001 0.000000 0.000000 -0.000000 -0.000000 0.000000 -0.000000 -0.000000 0.000000 -0.000001 0.000000 0.000000 0.000000 0.000000 -0.000000 0.000000 0.000000 -0.000000 0.000000 -0.000000 0.000000 
